<svg width="81" height="34" viewBox="0 0 81 34" fill="none" xmlns="http://www.w3.org/2000/svg">
<path d="M22.7179 23.192C22.8379 23.504 22.8979 23.792 22.8979 24.056C22.8979 24.68 22.6939 25.196 22.2859 25.604C21.8779 25.988 21.4099 26.18 20.8819 26.18C20.4499 26.18 20.0539 26.048 19.6939 25.784C19.3579 25.52 19.0939 25.16 18.9019 24.704L17.0299 20.348H6.30189L4.42989 24.74C4.26189 25.196 3.99789 25.556 3.63789 25.82C3.30189 26.06 2.92989 26.18 2.52189 26.18C1.89789 26.18 1.41789 26.012 1.08189 25.676C0.769892 25.34 0.613892 24.884 0.613892 24.308C0.613892 24.092 0.649892 23.864 0.721892 23.624L9.68589 2.096C9.87789 1.616 10.1659 1.244 10.5499 0.979997C10.9339 0.715997 11.3659 0.607998 11.8459 0.655997C12.2779 0.655997 12.6739 0.787997 13.0339 1.052C13.4179 1.292 13.6939 1.64 13.8619 2.096L22.7179 23.192ZM15.2659 16.208L11.6299 7.784L8.06589 16.208H15.2659Z" fill="#3b3735"/>
<path d="M45.0621 0.799997C45.6381 0.799997 46.1061 0.991998 46.4661 1.376C46.8261 1.76 47.0061 2.24 47.0061 2.816V23.804C47.0061 24.428 46.7901 24.956 46.3581 25.388C45.9501 25.796 45.4341 26 44.8101 26C44.4741 26 44.1381 25.952 43.8021 25.856C43.4901 25.736 43.2621 25.58 43.1181 25.388L29.9061 8.612V23.984C29.9061 24.56 29.7141 25.04 29.3301 25.424C28.9701 25.808 28.4901 26 27.8901 26C27.3141 26 26.8461 25.808 26.4861 25.424C26.1261 25.04 25.9461 24.56 25.9461 23.984V2.996C25.9461 2.372 26.1501 1.856 26.5581 1.448C26.9901 1.016 27.5181 0.799997 28.1421 0.799997C28.5021 0.799997 28.8501 0.871998 29.1861 1.016C29.5461 1.16 29.8101 1.352 29.9781 1.592L43.0821 18.296V2.816C43.0821 2.24 43.2621 1.76 43.6221 1.376C44.0061 0.991998 44.4861 0.799997 45.0621 0.799997Z" fill="#3b3735"/>
<path d="M51.0147 33.056C50.4387 33.056 49.9587 32.864 49.5747 32.48C49.1907 32.096 48.9987 31.616 48.9987 31.04V30.644C48.9987 29.684 49.6107 29.024 50.8347 28.664C51.6027 28.424 52.0827 28.016 52.2747 27.44C52.4907 26.888 52.5987 26.108 52.5987 25.1V8.936C52.5987 8.312 52.8027 7.796 53.2107 7.388C53.6187 6.956 54.1347 6.74 54.7587 6.74C55.3827 6.74 55.8987 6.956 56.3067 7.388C56.7147 7.796 56.9187 8.312 56.9187 8.936V26.36C56.9187 27.704 56.6547 28.88 56.1267 29.888C55.6227 30.896 54.9147 31.676 54.0027 32.228C53.1147 32.78 52.1187 33.056 51.0147 33.056ZM54.6867 4.4C53.8707 4.4 53.2947 4.268 52.9587 4.004C52.6227 3.74 52.4547 3.272 52.4547 2.6V1.916C52.4547 1.244 52.6347 0.775999 52.9947 0.511999C53.3547 0.247998 53.9307 0.115997 54.7227 0.115997C55.5627 0.115997 56.1507 0.247998 56.4867 0.511999C56.8227 0.775999 56.9907 1.244 56.9907 1.916V2.6C56.9907 3.296 56.8107 3.776 56.4507 4.04C56.1147 4.28 55.5267 4.4 54.6867 4.4Z" fill="#3b3735"/>
<path d="M80.4768 16.388C80.4768 18.308 80.0448 20.036 79.1808 21.572C78.3168 23.084 77.1288 24.26 75.6168 25.1C74.1288 25.94 72.4848 26.36 70.6848 26.36C68.8608 26.36 67.2048 25.94 65.7168 25.1C64.2288 24.26 63.0528 23.084 62.1888 21.572C61.3248 20.036 60.8928 18.308 60.8928 16.388C60.8928 14.468 61.3248 12.752 62.1888 11.24C63.0528 9.704 64.2288 8.516 65.7168 7.676C67.2048 6.812 68.8608 6.38 70.6848 6.38C72.4848 6.38 74.1288 6.812 75.6168 7.676C77.1288 8.516 78.3168 9.704 79.1808 11.24C80.0448 12.752 80.4768 14.468 80.4768 16.388ZM76.1568 16.388C76.1568 15.212 75.9048 14.168 75.4008 13.256C74.9208 12.32 74.2608 11.6 73.4208 11.096C72.6048 10.592 71.6928 10.34 70.6848 10.34C69.6768 10.34 68.7528 10.592 67.9128 11.096C67.0968 11.6 66.4368 12.32 65.9328 13.256C65.4528 14.168 65.2128 15.212 65.2128 16.388C65.2128 17.564 65.4528 18.608 65.9328 19.52C66.4368 20.432 67.0968 21.14 67.9128 21.644C68.7528 22.148 69.6768 22.4 70.6848 22.4C71.6928 22.4 72.6048 22.148 73.4208 21.644C74.2608 21.14 74.9208 20.432 75.4008 19.52C75.9048 18.608 76.1568 17.564 76.1568 16.388Z" fill="#3b3735"/>
</svg>
