<svg width="757" height="325" viewBox="0 0 757 325" fill="none" xmlns="http://www.w3.org/2000/svg">
<g clip-path="url(#clip0)">
<path d="M166.157 181.31C166.164 180.312 165.965 179.324 165.574 178.407C165.183 177.49 164.607 176.663 163.883 175.979C163.159 175.295 162.302 174.767 161.365 174.43C160.428 174.093 159.432 173.953 158.439 174.018C157.446 174.084 156.477 174.354 155.593 174.812C154.709 175.27 153.928 175.906 153.3 176.68C152.672 177.453 152.21 178.349 151.943 179.309C151.675 180.27 151.608 181.276 151.746 182.264L130.944 209.568C130.057 211.347 129.713 213.349 129.955 215.324C130.198 217.298 131.016 219.157 132.308 220.667L133.939 222.575L141.426 221.074L149.912 213.57L148.913 205.065L159.396 188.555L159.382 188.543C161.217 188.426 162.938 187.613 164.197 186.27C165.455 184.926 166.156 183.153 166.157 181.31Z" fill="#FFB9B9"/>
<path d="M22.3064 314.794L18.9108 302.154L65.9369 283.012L70.9482 301.668L22.3064 314.794Z" fill="#FFB8B8"/>
<path d="M10.948 321.316L0 280.56L0.514309 280.421C4.71182 279.288 9.1863 279.873 12.9536 282.047C16.7208 284.221 19.4723 287.806 20.6028 292.013L20.6031 292.014L27.2896 316.907L10.948 321.316Z" fill="#3B3735"/>
<path d="M87.0827 312.774L76.5209 305.076L101.122 260.578L116.71 271.94L87.0827 312.774Z" fill="#FFB8B8"/>
<path d="M82.3312 325L48.2741 300.175L48.5874 299.744C51.1441 296.22 54.9926 293.858 59.2864 293.179C63.5801 292.499 67.9674 293.556 71.4832 296.119L71.484 296.119L92.2849 311.281L82.3312 325Z" fill="#3B3735"/>
<path d="M176.866 250.592L150.287 224.713C147.967 222.454 144.912 221.111 141.683 220.93C138.454 220.749 135.268 221.743 132.712 223.729L82.527 279.61L87.0195 286.614L134.937 254.094L167.382 296.62L198.329 281.111L176.866 250.592Z" fill="#3B3735"/>
<path d="M165.385 256.095L145.919 254.595L131.821 251.169C131.025 249.924 129.868 248.952 128.505 248.384C127.143 247.816 125.64 247.679 124.197 247.991C122.755 248.302 121.442 249.049 120.434 250.129C119.427 251.209 118.772 252.573 118.559 254.036C118.345 255.499 118.583 256.993 119.24 258.318C119.897 259.642 120.942 260.733 122.235 261.446C123.528 262.159 125.007 262.458 126.475 262.305C127.943 262.152 129.329 261.553 130.447 260.588L130.445 260.598L138.931 264.1L175.368 276.608L179.86 273.106L165.385 256.095Z" fill="#FFB9B9"/>
<path d="M212.305 310.128L201.324 317.132H188.346L127.949 294.619L39.6008 310.628L37.1051 291.616L117.967 256.096L188.845 279.609L212.305 310.128Z" fill="#3B3735"/>
<path d="M188.845 188.555C199.596 188.555 208.312 179.819 208.312 169.043C208.312 158.267 199.596 149.532 188.845 149.532C178.094 149.532 169.378 158.267 169.378 169.043C169.378 179.819 178.094 188.555 188.845 188.555Z" fill="#FFB9B9"/>
<path d="M239.214 246.945C239.214 258.721 237.362 270.423 233.728 281.621L232.271 286.113L225.283 318.133H217.068L212.305 313.13L201.324 305.125L193.337 292.117L186.489 280.68L184.353 277.108L176.866 239.586L148.414 223.576L138.931 222.075L140.927 216.572L149.413 205.065L157.898 204.064L160.394 202.063L162.39 203.064L173.397 207.313L209.08 192.202L214.302 193.058L232.271 208.067C236.864 220.512 239.215 233.676 239.214 246.945Z" fill="#CCCCCC"/>
<path opacity="0.1" d="M233.768 242.588L214.801 255.095L186.489 280.68L184.353 277.108L178.363 247.09H179.861L195.334 218.574L233.768 242.588Z" fill="black"/>
<path d="M195.334 215.571L179.861 244.088L170.876 254.094L162.89 256.096L184.353 279.609L214.8 252.093L233.768 239.585L195.334 215.571Z" fill="#CCCCCC"/>
<path d="M173.704 154.536L171.595 155.349C171.275 155.132 171 154.853 170.787 154.53C170.575 154.206 170.427 153.844 170.354 153.463C170.281 153.083 170.284 152.691 170.361 152.312C170.439 151.932 170.591 151.571 170.808 151.251C170.819 151.234 170.83 151.217 170.842 151.2L166.944 151.018C169.447 147.678 172.628 144.908 176.277 142.893C179.927 140.877 183.962 139.661 188.116 139.326C192.27 138.99 196.447 139.542 200.372 140.946C204.296 142.35 207.879 144.573 210.883 147.468C211.06 146.855 212.994 148.047 213.784 149.256C214.05 148.259 215.863 153.078 216.505 156.484C216.802 155.35 217.944 157.18 216.943 158.937C217.577 158.844 217.864 160.47 217.373 161.376C218.066 161.049 217.95 162.99 217.198 164.286C218.187 164.198 217.113 184.628 202.263 183.139C201.229 178.378 201.52 178.674 200.303 172.551C199.736 171.948 199.115 171.399 198.496 170.851L195.145 167.887C191.249 164.439 187.705 160.185 182.514 158.896C178.947 158.011 176.692 157.811 178.635 153.782C176.879 154.517 175.239 155.609 173.467 156.292C173.491 155.729 173.738 155.099 173.704 154.536Z" fill="#3B3735"/>
<path d="M198.578 174.797C200.508 174.797 202.072 173.229 202.072 171.295C202.072 169.361 200.508 167.793 198.578 167.793C196.649 167.793 195.084 169.361 195.084 171.295C195.084 173.229 196.649 174.797 198.578 174.797Z" fill="#FFB9B9"/>
<path d="M35.6397 88.5825L34.5735 104.63L50.5842 105.699L51.6505 89.6512L35.6397 88.5825Z" fill="#E6E6E6"/>
<path d="M25.3097 97.1038L44.7513 98.4015L43.4565 117.888L24.015 116.59L25.3097 97.1038ZM43.8497 99.1923L26.0987 98.0074L24.9165 115.799L42.6675 116.984L43.8497 99.1923Z" fill="#CCCCCC"/>
<path d="M126.119 40.996L110.431 44.3748L113.802 60.0992L129.49 56.7205L126.119 40.996Z" fill="#E6E6E6"/>
<path d="M115.108 33.3798L119.201 52.4737L100.151 56.5764L96.0579 37.4825L115.108 33.3798ZM118.195 51.8219L114.457 34.3883L97.0641 38.1343L100.801 55.5679L118.195 51.8219Z" fill="#CCCCCC"/>
<path d="M109.635 116.51L97.9235 127.505L108.893 139.243L120.604 128.249L109.635 116.51Z" fill="#E6E6E6"/>
<path d="M121.446 114.865L107.225 128.216L93.9054 113.963L108.126 100.612L121.446 114.865ZM107.265 127.016L120.249 114.826L108.087 101.812L95.1028 114.002L107.265 127.016Z" fill="#CCCCCC"/>
<path d="M715.264 0H240.502C238.786 -1.95472e-06 237.087 0.338778 235.501 0.996997C233.916 1.65522 232.475 2.61998 231.262 3.83621C230.049 5.05244 229.086 6.49632 228.429 8.08541C227.773 9.67449 227.435 11.3777 227.435 13.0977V278.238C227.435 279.958 227.773 281.662 228.429 283.251C229.086 284.84 230.049 286.284 231.262 287.5C232.475 288.716 233.916 289.681 235.501 290.339C237.087 290.997 238.786 291.336 240.502 291.336H715.264C718.73 291.336 722.054 289.956 724.504 287.5C726.955 285.044 728.332 281.712 728.332 278.238V13.0977C728.332 9.62395 726.955 6.29251 724.504 3.83622C722.054 1.37993 718.73 1.97387e-06 715.264 0Z" fill="#3B3735"/>
<path d="M710.812 23.1472H244.954V286.547H710.812V23.1472Z" fill="white"/>
<path d="M477.485 15.9636C480.124 15.9636 482.263 13.8195 482.263 11.1745C482.263 8.5296 480.124 6.38545 477.485 6.38545C474.846 6.38545 472.707 8.5296 472.707 11.1745C472.707 13.8195 474.846 15.9636 477.485 15.9636Z" fill="white"/>
<path d="M577.585 286.547H244.954V23.1477L577.585 286.547Z" fill="#F2F2F2"/>
<path d="M317.847 266.837C342.578 266.837 362.627 246.742 362.627 221.953C362.627 197.165 342.578 177.07 317.847 177.07C293.116 177.07 273.067 197.165 273.067 221.953C273.067 246.742 293.116 266.837 317.847 266.837Z" fill="#78716C"/>
<path d="M327.815 255.688C316.799 255.688 306.029 252.413 296.869 246.278C287.709 240.144 280.57 231.424 276.354 221.222C272.138 211.021 271.035 199.795 273.184 188.965C275.333 178.135 280.638 168.187 288.428 160.379C296.218 152.571 306.144 147.254 316.949 145.099C327.754 142.945 338.953 144.051 349.132 148.276C359.31 152.502 368.009 159.658 374.13 168.839C380.25 178.021 383.517 188.815 383.517 199.857C383.517 207.189 382.076 214.449 379.277 221.222C376.478 227.996 372.375 234.151 367.202 239.335C362.03 244.519 355.89 248.632 349.131 251.438C342.373 254.243 335.13 255.688 327.815 255.688ZM327.815 144.756C316.943 144.756 306.314 147.988 297.274 154.042C288.233 160.097 281.187 168.703 277.026 178.771C272.866 188.839 271.777 199.918 273.898 210.607C276.019 221.295 281.255 231.113 288.943 238.819C296.631 246.525 306.427 251.773 317.091 253.899C327.754 256.025 338.808 254.934 348.853 250.763C358.898 246.593 367.484 239.531 373.524 230.469C379.565 221.408 382.789 210.755 382.789 199.857C382.789 192.621 381.367 185.456 378.604 178.771C375.842 172.086 371.792 166.012 366.688 160.895C361.583 155.778 355.523 151.72 348.853 148.951C342.183 146.182 335.035 144.756 327.815 144.756L327.815 144.756Z" fill="#3B3735"/>
<path d="M602.968 159.991H559.451V169.105H602.968V159.991Z" fill="#3B3735"/>
<path d="M644.138 110.615H518.281V114.521H644.138V110.615Z" fill="#3B3735"/>
<path d="M644.138 125.961H518.281V129.867H644.138V125.961Z" fill="#3B3735"/>
<path d="M644.138 141.307H518.281V145.213H644.138V141.307Z" fill="#3B3735"/>
<path d="M677.853 38.9106H659.667V57.1386H677.853V38.9106Z" fill="#78716C"/>
<path d="M686.296 65.6015H664.213V43.4676H686.296V65.6015ZM665.174 64.6392H685.336V44.4299H665.174L665.174 64.6392Z" fill="#CCCCCC"/>
<path d="M741.412 281.758H695.947V278.475C695.947 278.389 695.931 278.304 695.898 278.225C695.865 278.147 695.817 278.075 695.757 278.014C695.697 277.954 695.625 277.906 695.546 277.873C695.468 277.84 695.383 277.824 695.298 277.824H679.71C679.625 277.824 679.54 277.84 679.461 277.873C679.383 277.906 679.311 277.954 679.251 278.014C679.19 278.075 679.142 278.146 679.11 278.225C679.077 278.304 679.06 278.389 679.06 278.475V281.758H669.318V278.475C669.318 278.389 669.301 278.304 669.269 278.225C669.236 278.147 669.188 278.075 669.128 278.014C669.067 277.954 668.996 277.906 668.917 277.873C668.838 277.84 668.754 277.824 668.669 277.824H653.081C652.995 277.824 652.911 277.84 652.832 277.873C652.753 277.906 652.682 277.954 652.621 278.014C652.561 278.075 652.513 278.147 652.481 278.225C652.448 278.304 652.431 278.389 652.431 278.475V281.758H642.689V278.475C642.689 278.389 642.672 278.304 642.639 278.225C642.607 278.147 642.559 278.075 642.498 278.014C642.438 277.954 642.367 277.906 642.288 277.873C642.209 277.84 642.125 277.824 642.039 277.824H626.451C626.366 277.824 626.281 277.84 626.203 277.873C626.124 277.906 626.052 277.954 625.992 278.014C625.932 278.075 625.884 278.147 625.851 278.225C625.819 278.304 625.802 278.389 625.802 278.475V281.758H616.059V278.475C616.059 278.389 616.043 278.304 616.01 278.225C615.977 278.147 615.929 278.075 615.869 278.014C615.809 277.954 615.737 277.906 615.658 277.873C615.58 277.84 615.495 277.824 615.41 277.824H599.822C599.737 277.824 599.652 277.84 599.573 277.873C599.495 277.906 599.423 277.954 599.363 278.014C599.302 278.075 599.255 278.146 599.222 278.225C599.189 278.304 599.172 278.389 599.172 278.475V281.758H589.43V278.475C589.43 278.389 589.413 278.304 589.381 278.225C589.348 278.147 589.3 278.075 589.24 278.014C589.179 277.954 589.108 277.906 589.029 277.873C588.95 277.84 588.866 277.824 588.781 277.824H573.193C573.107 277.824 573.023 277.84 572.944 277.873C572.865 277.906 572.794 277.954 572.733 278.014C572.673 278.075 572.625 278.147 572.593 278.225C572.56 278.304 572.543 278.389 572.543 278.475V281.758H562.801V278.475C562.801 278.389 562.784 278.304 562.751 278.225C562.719 278.147 562.671 278.075 562.61 278.014C562.55 277.954 562.478 277.906 562.4 277.873C562.321 277.84 562.236 277.824 562.151 277.824H546.563C546.478 277.824 546.393 277.84 546.315 277.873C546.236 277.906 546.164 277.954 546.104 278.014C546.044 278.075 545.996 278.147 545.963 278.225C545.931 278.304 545.914 278.389 545.914 278.475V281.758H536.171V278.475C536.171 278.389 536.155 278.304 536.122 278.225C536.089 278.147 536.041 278.075 535.981 278.014C535.921 277.954 535.849 277.906 535.77 277.873C535.692 277.84 535.607 277.824 535.522 277.824H413.417C413.331 277.824 413.247 277.84 413.168 277.873C413.089 277.906 413.018 277.954 412.957 278.014C412.897 278.075 412.849 278.147 412.816 278.225C412.784 278.304 412.767 278.389 412.767 278.475V281.758H403.025V278.475C403.025 278.389 403.008 278.304 402.975 278.225C402.942 278.147 402.895 278.075 402.834 278.014C402.774 277.954 402.702 277.906 402.624 277.873C402.545 277.84 402.46 277.824 402.375 277.824H386.787C386.702 277.824 386.617 277.84 386.539 277.873C386.46 277.906 386.388 277.954 386.328 278.014C386.268 278.075 386.22 278.147 386.187 278.225C386.154 278.304 386.138 278.389 386.138 278.475V281.758H376.395V278.475C376.395 278.389 376.378 278.304 376.346 278.225C376.313 278.147 376.265 278.075 376.205 278.014C376.145 277.954 376.073 277.906 375.994 277.873C375.916 277.84 375.831 277.824 375.746 277.824H360.158C360.072 277.824 359.988 277.84 359.909 277.873C359.83 277.906 359.759 277.954 359.699 278.014C359.638 278.075 359.59 278.147 359.558 278.225C359.525 278.304 359.508 278.389 359.508 278.475V281.758H349.766V278.475C349.766 278.389 349.749 278.304 349.716 278.225C349.684 278.147 349.636 278.075 349.576 278.014C349.515 277.954 349.444 277.906 349.365 277.873C349.286 277.84 349.202 277.824 349.116 277.824H333.528C333.443 277.824 333.359 277.84 333.28 277.873C333.201 277.906 333.129 277.954 333.069 278.014C333.009 278.075 332.961 278.147 332.928 278.225C332.896 278.304 332.879 278.389 332.879 278.475V281.758H323.137V278.475C323.137 278.389 323.12 278.304 323.087 278.225C323.054 278.147 323.007 278.075 322.946 278.014C322.886 277.954 322.814 277.906 322.736 277.873C322.657 277.84 322.572 277.824 322.487 277.824H306.899C306.814 277.824 306.729 277.84 306.651 277.873C306.572 277.906 306.5 277.954 306.44 278.014C306.38 278.075 306.332 278.147 306.299 278.225C306.266 278.304 306.25 278.389 306.25 278.475V281.758H296.507V278.475C296.507 278.389 296.49 278.304 296.458 278.225C296.425 278.147 296.377 278.075 296.317 278.014C296.257 277.954 296.185 277.906 296.106 277.873C296.027 277.84 295.943 277.824 295.858 277.824H280.27C280.097 277.824 279.932 277.892 279.81 278.014C279.689 278.136 279.62 278.302 279.62 278.475V281.758H269.878V278.475C269.878 278.389 269.861 278.304 269.828 278.225C269.796 278.147 269.748 278.075 269.688 278.014C269.627 277.954 269.556 277.906 269.477 277.873C269.398 277.84 269.314 277.824 269.228 277.824H253.64C253.468 277.824 253.303 277.892 253.181 278.014C253.059 278.136 252.991 278.302 252.991 278.475V281.758H223.114C218.98 281.758 215.015 283.404 212.092 286.334C209.168 289.264 207.526 293.238 207.526 297.382V304.447C207.526 308.59 209.168 312.564 212.092 315.494C215.015 318.424 218.98 320.071 223.114 320.071H741.412C745.546 320.071 749.511 318.424 752.434 315.494C755.358 312.564 757 308.59 757 304.447V297.382C757 295.33 756.597 293.298 755.813 291.403C755.03 289.507 753.882 287.785 752.434 286.334C750.987 284.883 749.269 283.732 747.377 282.947C745.486 282.162 743.459 281.758 741.412 281.758Z" fill="#3B3735"/>
</g>
<defs>
<clipPath id="clip0">
<rect width="757" height="325" fill="white"/>
</clipPath>
</defs>
</svg>
