<svg width="1269" height="742" viewBox="0 0 1269 742" fill="none" xmlns="http://www.w3.org/2000/svg">
<g clip-path="url(#clip0)">
<path d="M1130.02 277.498C1102.53 277.498 1075.66 269.361 1052.81 254.115C1029.95 238.869 1012.14 217.199 1001.62 191.846C991.102 166.493 988.349 138.595 993.712 111.68C999.074 84.7657 1012.31 60.043 1031.75 40.6386C1051.18 21.2342 1075.95 8.01969 1102.91 2.66602C1129.87 -2.68764 1157.81 0.0600563 1183.21 10.5616C1208.6 21.0632 1230.31 38.847 1245.58 61.6642C1260.85 84.4813 1269 111.307 1269 138.749C1268.96 175.535 1254.3 210.802 1228.25 236.813C1202.19 262.825 1166.87 277.456 1130.02 277.498V277.498ZM1130.02 2.16795C1102.96 2.16795 1076.51 10.1783 1054.01 25.186C1031.52 40.1937 1013.98 61.5248 1003.63 86.4817C993.272 111.439 990.563 138.901 995.842 165.395C1001.12 191.889 1014.15 216.225 1033.28 235.326C1052.42 254.428 1076.79 267.436 1103.33 272.706C1129.87 277.976 1157.38 275.271 1182.37 264.933C1207.37 254.596 1228.74 237.09 1243.77 214.629C1258.8 192.169 1266.83 165.762 1266.83 138.749C1266.79 102.538 1252.36 67.8219 1226.71 42.2169C1201.07 16.6118 1166.29 2.20892 1130.02 2.16795V2.16795Z" fill="#3B3735"/>
<path d="M1130.49 208.818C1169.03 208.818 1200.27 177.625 1200.27 139.147C1200.27 100.669 1169.03 69.4768 1130.49 69.4768C1091.95 69.4768 1060.7 100.669 1060.7 139.147C1060.7 177.625 1091.95 208.818 1130.49 208.818Z" fill="#DDDCDA"/>
<path d="M1135.09 139.309H69.7542V673.628H1135.09V139.309Z" fill="#3B3735"/>
<path opacity="0.1" d="M768.565 293.78H369.063V567.27H768.565V293.78Z" fill="white"/>
<path d="M1226 69.3148C1241.54 69.3148 1254.14 56.7372 1254.14 41.2219C1254.14 25.7066 1241.54 13.129 1226 13.129C1210.46 13.129 1197.86 25.7066 1197.86 41.2219C1197.86 56.7372 1210.46 69.3148 1226 69.3148Z" fill="#78716C"/>
<path d="M101.461 172.229C108.465 172.229 114.143 166.56 114.143 159.567C114.143 152.575 108.465 146.906 101.461 146.906C94.4563 146.906 88.7781 152.575 88.7781 159.567C88.7781 166.56 94.4563 172.229 101.461 172.229Z" fill="#78716C"/>
<path d="M140.777 172.229C147.781 172.229 153.459 166.56 153.459 159.567C153.459 152.575 147.781 146.906 140.777 146.906C133.772 146.906 128.094 152.575 128.094 159.567C128.094 166.56 133.772 172.229 140.777 172.229Z" fill="#78716C"/>
<path d="M180.093 172.229C187.097 172.229 192.775 166.56 192.775 159.567C192.775 152.575 187.097 146.906 180.093 146.906C173.088 146.906 167.41 152.575 167.41 159.567C167.41 166.56 173.088 172.229 180.093 172.229Z" fill="#78716C"/>
<path d="M218.14 338.096H192.775V363.419H218.14V338.096Z" fill="#78716C"/>
<path d="M990.51 558.407H965.145V583.73H990.51V558.407Z" fill="white"/>
<path d="M901.077 382.33L881.359 398.258L897.313 417.945L917.032 402.016L901.077 382.33Z" fill="#78716C"/>
<path d="M811.685 726.806H15.2193V298.845H17.7557V724.274H811.685V726.806Z" fill="#3B3735"/>
<path d="M826.905 742C823.644 742 820.456 741.034 817.745 739.226C815.033 737.417 812.92 734.846 811.672 731.839C810.424 728.831 810.098 725.522 810.734 722.329C811.37 719.136 812.941 716.203 815.246 713.901C817.552 711.599 820.49 710.031 823.688 709.396C826.886 708.761 830.202 709.087 833.214 710.333C836.227 711.579 838.802 713.688 840.613 716.395C842.425 719.102 843.392 722.284 843.392 725.54C843.387 729.904 841.648 734.087 838.557 737.173C835.467 740.259 831.276 741.995 826.905 742V742ZM826.905 711.612C824.145 711.612 821.448 712.429 819.154 713.959C816.86 715.49 815.072 717.665 814.016 720.21C812.96 722.755 812.684 725.555 813.222 728.257C813.76 730.959 815.089 733.44 817.04 735.388C818.991 737.336 821.477 738.662 824.183 739.2C826.889 739.737 829.694 739.461 832.243 738.407C834.793 737.353 836.971 735.568 838.504 733.278C840.037 730.987 840.856 728.295 840.856 725.54C840.851 721.847 839.38 718.307 836.765 715.696C834.149 713.085 830.603 711.616 826.905 711.612V711.612Z" fill="#3B3735"/>
<path d="M16.4874 300.111C13.2265 300.111 10.0388 299.146 7.32748 297.337C4.61615 295.528 2.50292 292.958 1.25503 289.95C0.00714388 286.942 -0.319361 283.633 0.316808 280.44C0.952976 277.247 2.52325 274.314 4.82905 272.012C7.13485 269.71 10.0726 268.142 13.2708 267.507C16.4691 266.872 19.7841 267.198 22.7968 268.444C25.8095 269.69 28.3845 271.799 30.1961 274.506C32.0078 277.213 32.9747 280.395 32.9747 283.651C32.9699 288.015 31.2313 292.199 28.1404 295.285C25.0494 298.37 20.8586 300.106 16.4874 300.111V300.111ZM16.4874 269.723C13.7282 269.723 11.0309 270.54 8.7367 272.07C6.4425 273.601 4.65438 275.776 3.59848 278.321C2.54257 280.866 2.2663 283.666 2.80459 286.368C3.34289 289.07 4.67158 291.551 6.62264 293.499C8.5737 295.447 11.0595 296.774 13.7657 297.311C16.4719 297.848 19.277 297.573 21.8261 296.518C24.3753 295.464 26.5541 293.679 28.0871 291.389C29.62 289.098 30.4382 286.406 30.4382 283.651C30.434 279.958 28.9629 276.418 26.3475 273.807C23.7321 271.196 20.1861 269.727 16.4874 269.723V269.723Z" fill="#3B3735"/>
<path d="M254.92 641.974L243.594 673.628H218.14V641.34C220.017 600.836 242.783 581.793 243.493 581.211C226.384 597.683 228.287 654.635 228.287 654.635C239.701 605.255 249.847 603.989 249.847 603.989C243.709 613.194 240.538 655.066 240.348 657.674C241.109 648.874 254.92 641.974 254.92 641.974Z" fill="#F2F2F2"/>
<path d="M1042.51 646.278V673.627H1022.94L1013.34 646.772C1013.34 646.772 1024.28 652.242 1024.89 659.219C1024.74 657.066 1022.23 623.943 1017.36 616.65C1017.36 616.65 1025.41 617.651 1034.47 656.813C1034.47 656.813 1035.96 611.649 1022.41 598.582C1022.98 599.051 1041.02 614.143 1042.51 646.278Z" fill="#F2F2F2"/>
<path d="M700.016 567.265H669.169L668.962 564.739L666.715 536.588V536.577L664.381 507.31L678.615 446.943L690.711 459.019V516.546C690.711 516.546 697.822 527.201 696.4 530.041C694.978 532.881 693.555 532.881 694.978 535.006C696.4 537.141 697.822 538.561 696.4 539.981C695.708 540.904 695.333 542.026 695.333 543.179C695.333 544.332 695.708 545.454 696.4 546.377C697.822 547.797 700.667 549.921 698.528 552.057C696.4 554.181 693.555 552.761 696.4 560.577C696.922 562.021 697.576 563.415 698.354 564.739C698.862 565.611 699.416 566.454 700.016 567.265V567.265Z" fill="#D0CDE1"/>
<path d="M604.982 372.722L600.714 415.335L644.109 421.728L647.31 397.225L650.512 372.722H604.982Z" fill="#FFB9B9"/>
<path opacity="0.1" d="M604.982 372.722L600.714 415.335L644.109 421.728L647.31 397.225L650.512 372.722H604.982Z" fill="black"/>
<path d="M628.814 386.572C647.673 386.572 662.961 371.309 662.961 352.481C662.961 333.653 647.673 318.39 628.814 318.39C609.955 318.39 594.667 333.653 594.667 352.481C594.667 371.309 609.955 386.572 628.814 386.572Z" fill="#FFB9B9"/>
<path d="M542.524 567.265C542.404 567.015 542.274 566.755 542.144 566.473C541.894 565.942 541.623 565.368 541.33 564.739C539.44 560.533 537.128 554.55 538.463 552.761C540.602 549.921 541.308 547.081 539.885 545.661C538.463 544.241 534.196 547.081 538.463 543.526C542.73 539.981 544.153 542.106 542.73 537.846C541.308 533.586 538.463 535.721 541.308 533.586C544.153 531.461 546.292 532.166 544.869 530.041C543.447 527.906 540.602 527.906 543.447 526.486C546.292 525.066 548.431 526.486 547.714 522.93C546.997 519.385 546.292 520.806 547.714 519.386C548.083 519.017 549.375 515.44 551.102 510.334C555.933 495.907 564.077 469.295 564.077 468.244C564.077 466.824 552.698 422.088 552.698 422.088L547.714 419.237C547.714 419.237 525.662 434.152 518.55 467.539C511.427 500.915 506.454 509.445 506.454 509.445C506.454 509.445 499.343 510.865 504.316 515.83C509.299 520.806 509.299 520.09 505.032 522.93C500.765 525.77 497.92 520.09 500.765 525.77C503.61 531.461 507.16 530.041 504.316 533.586C501.471 537.141 496.498 537.141 499.343 539.981C502.187 542.821 496.498 549.217 500.048 552.057C503.61 554.897 505.032 555.601 505.032 560.577C505.034 561.971 505.146 563.363 505.369 564.739C505.491 565.591 505.665 566.434 505.89 567.265C506.053 567.926 506.216 568.425 506.324 568.739L542.524 567.265Z" fill="#D0CDE1"/>
<path d="M542.524 567.265H545.423L545.575 566.256L542.144 566.473L529.668 567.265L506.324 568.739L542.524 567.265Z" fill="#3F3D56"/>
<path d="M557.671 537.141L551.275 515.126L551.102 510.334L547.714 419.237L589.69 404.332L596.802 398.641C596.802 398.641 598.224 382.306 600.363 380.886C601.134 380.376 602.372 380.973 604.011 382.36C606.889 384.799 611.015 389.666 616.009 395.097C623.838 403.617 640.2 402.197 645.173 399.357C645.813 398.985 646.477 398.655 647.16 398.37C650.732 396.896 652.285 397.937 652.285 397.937C655.846 400.777 647.312 410.012 647.312 410.012C647.312 410.012 650.157 416.397 668.648 422.792C687.149 429.188 690.711 459.019 690.711 459.019C690.711 459.019 668.648 518.67 669.364 522.93C669.972 526.583 667.453 534.409 666.715 536.577V536.588C666.596 536.935 666.52 537.141 666.52 537.141L668.137 564.739L668.289 567.265H560.678C560.358 566.386 559.955 565.541 559.473 564.739C559.354 564.544 559.223 564.338 559.093 564.132C552.698 554.181 557.671 537.141 557.671 537.141Z" fill="#D0CDE1"/>
<path d="M594.43 356.848C594.43 356.848 590.884 351.538 592.248 345.819C593.063 342.572 593.385 339.222 593.202 335.88C593.202 335.88 596.067 326.621 598.931 321.447C601.795 316.273 600.431 314.094 609.432 312.46C618.434 310.826 614.751 299.117 638.482 311.779C639.283 312.895 640.397 313.75 641.683 314.234C642.97 314.719 644.371 314.812 645.711 314.503C650.621 313.549 652.394 320.357 652.394 320.357C652.394 320.357 655.667 318.451 656.894 321.174C658.122 323.898 666.874 319.54 666.874 337.921C666.874 356.303 656.914 372.722 656.914 372.722C656.914 372.722 657.644 341.802 641.415 338.671C625.185 335.539 607.727 326.416 603.499 338.126C601.217 344.698 598.173 350.981 594.43 356.848Z" fill="#3B3735"/>
<path d="M657.27 364.2C659.038 364.2 660.471 362.292 660.471 359.938C660.471 357.585 659.038 355.677 657.27 355.677C655.502 355.677 654.069 357.585 654.069 359.938C654.069 362.292 655.502 364.2 657.27 364.2Z" fill="#FFB9B9"/>
<path d="M369.06 273.518V567.265H835.781V273.518H369.06ZM833.251 564.739H371.601V276.055H833.251V564.739Z" fill="white"/>
</g>
<defs>
<clipPath id="clip0">
<rect width="1269" height="742" fill="white"/>
</clipPath>
</defs>
</svg>
