<svg width="466" height="783" viewBox="0 0 466 783" fill="none" xmlns="http://www.w3.org/2000/svg">
<g clip-path="url(#clip0)">
<path d="M104.602 782.608L103.139 779.904C122.757 769.296 147.173 756.096 159.926 734.433C172.497 713.078 172.779 684.079 160.662 658.753C150.35 637.198 131.407 617.888 105.882 602.908C100.847 599.953 95.5623 597.153 90.4509 594.444C78.0962 587.899 65.3209 581.129 54.7869 571.526C40.2784 558.298 29.3008 536.101 37.4828 516.33C40.1736 510.019 44.5805 504.589 50.203 500.656C55.8254 496.724 62.4383 494.446 69.2906 494.081L69.4641 497.152C63.1866 497.485 57.128 499.571 51.9761 503.172C46.8241 506.773 42.785 511.746 40.3171 517.526C32.714 535.899 43.1454 556.749 56.86 569.253C67.106 578.594 79.7063 585.27 91.8916 591.727C97.0319 594.45 102.348 597.267 107.44 600.256C133.496 615.547 152.86 635.316 163.438 657.425C175.991 683.662 175.661 713.768 162.578 735.993C149.39 758.394 124.556 771.821 104.602 782.608Z" fill="#FED7AA"/>
<path d="M88.7895 510.292C103.657 510.292 115.709 504.44 115.709 497.22C115.709 490.001 103.657 484.148 88.7895 484.148C73.9221 484.148 61.8696 490.001 61.8696 497.22C61.8696 504.44 73.9221 510.292 88.7895 510.292Z" fill="#FED7AA"/>
<path d="M110.325 596.413C125.193 596.413 137.245 590.56 137.245 583.341C137.245 576.121 125.193 570.269 110.325 570.269C95.458 570.269 83.4055 576.121 83.4055 583.341C83.4055 590.56 95.458 596.413 110.325 596.413Z" fill="#FED7AA"/>
<path d="M61.1004 610.254C75.9679 610.254 88.0204 604.401 88.0204 597.182C88.0204 589.962 75.9679 584.11 61.1004 584.11C46.233 584.11 34.1805 589.962 34.1805 597.182C34.1805 604.401 46.233 610.254 61.1004 610.254Z" fill="#FED7AA"/>
<path d="M138.015 682.534C152.882 682.534 164.934 676.681 164.934 669.462C164.934 662.242 152.882 656.39 138.015 656.39C123.147 656.39 111.095 662.242 111.095 669.462C111.095 676.681 123.147 682.534 138.015 682.534Z" fill="#FED7AA"/>
<path d="M191.854 682.534C206.722 682.534 218.774 676.681 218.774 669.462C218.774 662.242 206.722 656.39 191.854 656.39C176.987 656.39 164.934 662.242 164.934 669.462C164.934 676.681 176.987 682.534 191.854 682.534Z" fill="#FED7AA"/>
<path d="M251.411 763.858L270.27 763.856L279.241 691.133L251.408 691.135L251.411 763.858Z" fill="#FFB9B9"/>
<path d="M246.601 757.702L283.741 757.7H283.742C290.019 757.701 296.039 760.194 300.478 764.631C304.917 769.069 307.411 775.087 307.411 781.362V782.131L246.602 782.134L246.601 757.702Z" fill="#3B3735"/>
<path d="M322.172 763.858L341.031 763.856L350.002 691.133L322.169 691.135L322.172 763.858Z" fill="#FFB9B9"/>
<path d="M317.362 757.702L354.502 757.7H354.503C360.781 757.701 366.801 760.194 371.239 764.631C375.678 769.069 378.172 775.087 378.172 781.362V782.131L317.363 782.134L317.362 757.702Z" fill="#3B3735"/>
<path d="M194.187 476.494C195.731 474.842 196.893 472.871 197.593 470.721C198.292 468.571 198.511 466.294 198.235 464.05C197.959 461.806 197.194 459.65 195.994 457.734C194.794 455.818 193.189 454.188 191.29 452.959L204.394 399.587L177.486 409.173L169.168 458.386C167.314 461.711 166.745 465.6 167.568 469.316C168.39 473.032 170.548 476.318 173.632 478.55C176.716 480.782 180.512 481.806 184.301 481.427C188.089 481.048 191.607 479.293 194.187 476.494V476.494Z" fill="#FFB9B9"/>
<path d="M394.381 471.881C392.838 470.228 391.675 468.258 390.976 466.108C390.277 463.958 390.057 461.681 390.334 459.437C390.61 457.193 391.375 455.037 392.575 453.12C393.774 451.204 395.38 449.574 397.278 448.345L384.175 394.974L411.083 404.559L419.401 453.772C421.255 457.097 421.824 460.986 421.001 464.702C420.178 468.419 418.02 471.704 414.936 473.936C411.852 476.169 408.056 477.192 404.268 476.813C400.48 476.434 396.962 474.679 394.381 471.881V471.881Z" fill="#FFB9B9"/>
<path d="M219.001 439.082L245.141 745.219L283.388 741.732L298.696 505.131L312.322 598.815L315.051 747.629L349.662 745.322L368.882 585.229L364.167 430.186L232.771 416.883L219.001 439.082Z" fill="#3B3735"/>
<path d="M290.908 160.505C312.815 160.505 330.573 142.751 330.573 120.85C330.573 98.9488 312.815 81.1946 290.908 81.1946C269.001 81.1946 251.242 98.9488 251.242 120.85C251.242 142.751 269.001 160.505 290.908 160.505Z" fill="#FFB9B9"/>
<path d="M278.347 89.1256C278.347 89.1256 296.858 94.0825 306.444 96.0653C316.029 98.0481 315.038 92.4302 315.038 92.4302C315.038 92.4302 327.599 94.0825 326.937 92.7606C326.276 91.4388 332.226 84.4992 325.285 76.5681C318.343 68.637 320.327 62.6888 320.327 62.6888H314.377L312.724 60.3756H303.468C303.468 60.3756 293.236 51.4052 275.056 54.0488C256.875 56.6924 235.376 63.6802 233.392 74.5854C233.123 76.0645 232.769 77.7078 232.358 79.4435C227.387 100.426 237.949 120.058 248.905 138.632C251.597 143.196 264.621 153.15 264.288 146.321C263.955 139.492 252.564 124.154 260.497 123.163C268.43 122.172 281.983 102.014 278.347 89.1256Z" fill="#3B3735"/>
<path d="M252.526 174.15L320.234 173.771L369.568 434.452C369.568 434.452 327.85 438.369 304.046 447.735C280.242 457.101 240.414 426.999 240.414 426.999L252.526 174.15Z" fill="#FB923C"/>
<path d="M258.353 203.501V174.051L250.443 174.003L192.655 210.735L205.194 411.985C205.194 411.985 220.035 479.125 242.546 478.429C265.057 477.732 282.414 238.381 258.353 203.501Z" fill="#3B3735"/>
<path d="M211.217 216.294L192.655 210.735C192.655 210.735 178.913 214.756 178.913 228.597C178.913 242.438 167.073 439.083 167.073 439.083L204.685 442.406L212.755 342.4L211.217 216.294Z" fill="#3B3735"/>
<path d="M314.282 193.226L310.582 174.051L321.204 172.465L359.661 187.844C359.661 187.844 394.273 440.823 378.89 448.513C363.507 456.202 353.12 450.245 353.12 450.245C353.12 450.245 302.524 263.661 311.48 238.44L314.282 193.226Z" fill="#3B3735"/>
<path d="M332.741 191.688L339.304 188.832C339.304 188.832 358.569 179.289 369.498 198.56C380.428 217.832 418.885 433.134 418.885 433.134L387.242 439.083L363.586 361.599L332.741 191.688Z" fill="#3B3735"/>
<path d="M587.624 783H1.53828C1.1303 783 0.739035 782.838 0.450551 782.549C0.162067 782.261 0 781.87 0 781.462C0 781.054 0.162067 780.663 0.450551 780.375C0.739035 780.086 1.1303 779.924 1.53828 779.924H587.624C588.032 779.924 588.423 780.086 588.711 780.375C589 780.663 589.162 781.054 589.162 781.462C589.162 781.87 589 782.261 588.711 782.549C588.423 782.838 588.032 783 587.624 783Z" fill="#FED7AA"/>
</g>
<defs>
<clipPath id="clip0">
<rect width="466" height="783" fill="white"/>
</clipPath>
</defs>
</svg>
